<svg width="96" height="96" viewBox="0 0 96 96" fill="none" xmlns="http://www.w3.org/2000/svg">
  <rect width="96" height="96" rx="24" fill="#00B14F"/>
  <path d="M24 50C24 34.5 35.8 23.5 50.9 23.5C60.6 23.5 67.8 27.7 72.2 33.2L63.5 40.2C60.7 36.7 56.7 34.6 51 34.6C42.3 34.6 35.9 41.1 35.9 50C35.9 59.2 42.4 65.6 51.8 65.6C56.4 65.6 60.4 64.4 62.8 62.6V56.2H49V45.9H74V68.6C69.1 73.4 61.2 76.5 51.4 76.5C35.8 76.5 24 65.6 24 50Z" fill="white"/>
  <path d="M43 50.2C43 45.6 46.4 42 51.2 42C54.7 42 57.1 43.6 58.8 45.8L55.2 48.6C54.3 47.4 53.1 46.6 51.3 46.6C49 46.6 47.4 48.1 47.4 50.2C47.4 52.4 49 53.9 51.3 53.9C53.1 53.9 54.3 53.2 55.2 51.9L58.8 54.7C57.2 56.9 54.8 58.5 51.2 58.5C46.4 58.5 43 54.9 43 50.2Z" fill="#00B14F"/>
</svg>
