<svg width="96" height="96" viewBox="0 0 96 96" fill="none" xmlns="http://www.w3.org/2000/svg">
  <rect width="96" height="96" rx="24" fill="#EE4D2D"/>
  <path d="M30 34H66L63 74H33L30 34Z" fill="white"/>
  <path d="M37 34C37 25.8 41.6 20 48 20C54.4 20 59 25.8 59 34" stroke="white" stroke-width="6" stroke-linecap="round"/>
  <path d="M42 48.5C42 45.6 44.7 43.5 48.4 43.5C51 43.5 53.1 44.4 55 45.7L52.8 49.4C51.2 48.4 49.8 47.8 48.5 47.8C47.2 47.8 46.4 48.3 46.4 49.1C46.4 51.6 55.5 50.4 55.5 56.5C55.5 59.8 52.6 62 48.5 62C45.5 62 42.6 60.9 40.6 59.1L43.1 55.6C44.8 57 46.8 57.9 48.6 57.9C50.1 57.9 50.9 57.3 50.9 56.4C50.9 53.8 42 55 42 48.5Z" fill="#EE4D2D"/>
</svg>
